<svg xmlns="http://www.w3.org/2000/svg" version="1.1" xmlns:xlink="http://www.w3.org/1999/xlink" width="512" height="512" x="0" y="0" viewBox="0 0 500 500" style="enable-background:new 0 0 512 512" xml:space="preserve" class=""><g><path fill-rule="evenodd" d="M63.351 379.881h45.719c.474 0 .86-.386.86-.86v-32.14a4.733 4.733 0 0 1 4.733-4.733h40.636a4.734 4.734 0 0 1 4.733 4.733v37.732a4.733 4.733 0 0 1-4.733 4.733h-35.043a.861.861 0 0 0-.86.86v48.816a4.734 4.734 0 0 1-4.733 4.733H63.351a4.734 4.734 0 0 1-4.733-4.733v-54.408a4.734 4.734 0 0 1 4.733-4.733zm200.515-201.82v-27.962c0-32.974 26.979-59.953 59.953-59.953s59.953 26.979 59.953 59.953v27.962c0 .474.386.86.86.86h20.854c3.811 0 7.545.342 11.174.997a.832.832 0 0 0 .704-.186.832.832 0 0 0 .309-.66v-28.973c0-51.62-42.234-93.854-93.854-93.854s-93.854 42.234-93.854 93.854v27.962c0 .474.386.86.86.86h32.181c.473 0 .86-.386.86-.86zm177.043 28.508c-9.095-9.095-21.635-14.74-35.423-14.74H211.158a.861.861 0 0 0-.86.86v55.01c0 .474.386.86.86.86h34.192a6.455 6.455 0 0 1 6.454 6.454v64.104a6.455 6.455 0 0 1-6.454 6.454h-48.169a.861.861 0 0 0-.86.86v45.325c0 .474.386.86.86.86h34.334a6.455 6.455 0 0 1 6.454 6.454v52.639c0 .474.386.86.86.86h166.657c27.577 0 50.163-22.586 50.163-50.163V241.992c0-13.788-5.645-26.328-14.74-35.423zM289.23 275.304c0-19.103 15.486-34.588 34.588-34.588s34.588 15.486 34.588 34.588c0 13.091-7.274 24.481-18 30.355a.841.841 0 0 0-.447.754v65.371c0 4.007-3.278 7.285-7.285 7.285h-17.712c-4.007 0-7.285-3.278-7.285-7.285v-65.371c0-.323-.164-.6-.447-.754-10.725-5.874-18-17.264-18-30.355zm-240.146 7.302h36.894a4.734 4.734 0 0 1 4.733 4.733v36.894a4.734 4.734 0 0 1-4.733 4.733H49.084a4.733 4.733 0 0 1-4.733-4.733v-36.894a4.733 4.733 0 0 1 4.733-4.733zm67.136-55.94h64.565a4.733 4.733 0 0 1 4.733 4.732v64.565a4.734 4.734 0 0 1-4.733 4.733H116.22a4.734 4.734 0 0 1-4.733-4.733v-64.565a4.733 4.733 0 0 1 4.733-4.732zm-13.835-87.677h41.654a4.733 4.733 0 0 1 4.733 4.733v41.654a4.734 4.734 0 0 1-4.733 4.733h-41.654a4.733 4.733 0 0 1-4.733-4.733v-41.654a4.733 4.733 0 0 1 4.733-4.733z" clip-rule="evenodd" fill="#EA580C" opacity="1" data-original="#000000" class=""></path></g></svg>